<svg 
          width="17.100000381469727" 
          height="10.699999809265137" fill="none" 
          xmlns="http://www.w3.org/2000/svg">
          <path d="M 15.300000190734863 10.699999809265137 C 14.981740415096283 10.699999809265133 14.676515936851501 10.573571562767029 14.451472282409668 10.348527908325195 C 14.226428627967834 10.123484253883362 14.100000381469727 9.81825977563858 14.100000381469727 9.5 L 14.100000381469727 1.2000000476837158 C 14.100000381469725 0.8817402720451355 14.226428627967834 0.5765155255794525 14.451472282409668 0.351471871137619 C 14.676515936851501 0.12642821669578552 14.981740415096283 5.551115123125783e-16 15.300000190734863 5.551115123125783e-17 L 15.899999618530273 0 C 16.218259394168854 1.8041124150158794e-16 16.523483872413635 0.12642821669578552 16.74852752685547 0.351471871137619 C 16.973571181297302 0.5765155255794525 17.10000038146973 0.8817402720451355 17.100000381469727 1.2000000476837158 L 17.100000381469727 9.5 C 17.100000381469723 9.81825977563858 16.973571181297302 10.123484253883362 16.74852752685547 10.348527908325195 C 16.523483872413635 10.573571562767029 16.218259394168854 10.699999809265135 15.899999618530273 10.699999809265137 L 15.300000190734863 10.699999809265137 Z M 10.600000381469727 10.699999809265137 C 10.281740605831146 10.699999809265133 9.976515173912048 10.573571562767029 9.751471519470215 10.348527908325195 C 9.526427865028381 10.123484253883362 9.399999618530273 9.81825977563858 9.399999618530273 9.5 L 9.399999618530273 3.5999999046325684 C 9.399999618530272 3.281740128993988 9.526427865028381 2.9765154123306274 9.751471519470215 2.751471757888794 C 9.976515173912048 2.5264281034469604 10.281740605831146 2.4000000953674316 10.600000381469727 2.4000000953674316 L 11.199999809265137 2.4000000953674316 C 11.518259584903717 2.400000095367432 11.823484063148499 2.5264281034469604 12.048527717590332 2.751471757888794 C 12.273571372032166 2.9765154123306274 12.399999618530273 3.281740128993988 12.399999618530273 3.5999999046325684 L 12.399999618530273 9.5 C 12.39999961853027 9.81825977563858 12.273571372032166 10.123484253883362 12.048527717590332 10.348527908325195 C 11.823484063148499 10.573571562767029 11.518259584903717 10.699999809265137 11.199999809265137 10.699999809265137 L 10.600000381469727 10.699999809265137 Z M 6 10.699999809265137 C 5.68174022436142 10.699999809265133 5.376515746116638 10.573571562767029 5.151472091674805 10.348527908325195 C 4.926428437232971 10.123484253883362 4.800000190734864 9.81825977563858 4.800000190734863 9.5 L 4.800000190734863 5.900000095367432 C 4.800000190734862 5.581740319728851 4.926428437232971 5.276515364646912 5.151472091674805 5.051471710205078 C 5.376515746116638 4.826428055763245 5.68174022436142 4.6999998092651385 6 4.699999809265137 L 6.599999904632568 4.699999809265137 C 6.918259680271149 4.699999809265137 7.223484635353088 4.826428055763245 7.448528289794922 5.051471710205078 C 7.673571944236755 5.276515364646912 7.800000190734863 5.581740319728851 7.800000190734863 5.900000095367432 L 7.800000190734863 9.5 C 7.800000190734861 9.81825977563858 7.673571944236755 10.123484253883362 7.448528289794922 10.348527908325195 C 7.223484635353088 10.573571562767029 6.918259680271149 10.699999809265135 6.599999904632568 10.699999809265137 L 6 10.699999809265137 Z M 1.2000000476837158 10.699999809265137 C 0.8817402720451355 10.699999809265133 0.5765155255794525 10.573571562767029 0.351471871137619 10.348527908325195 C 0.12642821669578552 10.123484253883362 6.245004513516506e-16 9.81825977563858 1.942890293094024e-16 9.5 L 0 7.900000095367432 C 2.0816681711721685e-16 7.581740319728851 0.12642821669578552 7.276515364646912 0.351471871137619 7.051471710205078 C 0.5765155255794525 6.826428055763245 0.8817402720451355 6.699999809265138 1.2000000476837158 6.699999809265137 L 1.7999999523162842 6.699999809265137 C 2.1182597279548645 6.699999809265136 2.423484444618225 6.826428055763245 2.6485280990600586 7.051471710205078 C 2.873571753501892 7.276515364646912 3 7.581740319728851 3 7.900000095367432 L 3 9.5 C 2.9999999999999987 9.81825977563858 2.873571753501892 10.123484253883362 2.6485280990600586 10.348527908325195 C 2.423484444618225 10.573571562767029 2.1182597279548645 10.699999809265135 1.7999999523162842 10.699999809265137 L 1.2000000476837158 10.699999809265137 Z" fill="rgb(15.000000055879354,24.000000469386578,40.00000141561031)"/>
        </svg>