<svg 
          width="15.39717960357666" 
          height="11.05673885345459" fill="none" 
          xmlns="http://www.w3.org/2000/svg">
          <path d="M 7.701380729675293 11.056737899780273 C 7.65984870120883 11.056544454739196 7.618765264749527 11.048139529302716 7.580493927001953 11.032007217407227 C 7.542222589254379 11.015874905511737 7.50751936621964 10.992333840578794 7.478381156921387 10.962738037109375 L 5.463380813598633 8.931737899780273 C 5.432629153132439 8.901431573554873 5.408392637968063 8.865162260830402 5.392157554626465 8.825155258178711 C 5.375922471284866 8.78514825552702 5.3680311879725195 8.742246933281422 5.368967533111572 8.699081420898438 C 5.369903878250625 8.655915908515453 5.379648378118873 8.613396368920803 5.3976030349731445 8.57413101196289 C 5.415557691827416 8.534865655004978 5.441344115883112 8.499681774526834 5.473381042480469 8.47073745727539 C 6.096389174461365 7.943839073181152 6.885939121246338 7.654731273651124 7.701880931854248 7.654731273651123 C 8.517822742462158 7.654731273651124 9.307372689247131 7.943839073181152 9.930380821228027 8.47073745727539 C 9.961806926876307 8.4998416621238 9.986904114484787 8.53510544449091 10.004108428955078 8.574331283569336 C 10.02131274342537 8.613557122647762 10.030256040583481 8.655905410647392 10.030381202697754 8.698738098144531 C 10.031170973845292 8.741987403482199 10.023155963048339 8.784944731742144 10.006824493408203 8.824999809265137 C 9.990493023768067 8.86505488678813 9.966186048462987 8.901370629668236 9.935380935668945 8.931737899780273 L 7.925380706787109 10.963737487792969 C 7.896041307598352 10.993271915242076 7.861138746142387 11.016697591170669 7.822690486907959 11.032660484313965 C 7.784242227673531 11.048623377457261 7.743010982871056 11.05680724861304 7.701380729675293 11.056737899780273 L 7.701380729675293 11.056737899780273 Z M 11.238381385803223 7.4897379875183105 C 11.15823645144701 7.490234623488504 11.081074710935354 7.459370020776987 11.023381233215332 7.403738021850586 C 10.113845705986023 6.579545378684998 8.930296182632446 6.1230669021606445 7.702880859375 6.1230669021606445 C 6.475465536117554 6.1230669021606445 5.291916489601135 6.579545378684998 4.382380962371826 7.403738021850586 C 4.323696535080671 7.4603716768324375 4.245114430785179 7.491687797533814 4.163562774658203 7.490939617156982 C 4.082011118531227 7.490191436780151 4.004016101360321 7.457439124584198 3.946380615234375 7.399738311767578 L 2.7813806533813477 6.221738338470459 C 2.750692008063197 6.191499499604106 2.7263220697641373 6.155460640788078 2.7096879482269287 6.115717887878418 C 2.69305382668972 6.075975134968758 2.6844875812530513 6.033321600407362 2.6844875812530518 5.990238189697266 C 2.6844875812530513 5.947154778987169 2.69305382668972 5.904501244425774 2.7096879482269287 5.864758491516113 C 2.7263220697641373 5.825015738606453 2.750692008063197 5.788976879790425 2.7813806533813477 5.758738040924072 C 4.117289304733276 4.516301155090332 5.874017596244812 3.82565689086914 7.698380947113037 3.8256568908691406 C 9.522744297981262 3.8256568908691393 11.279472589492798 4.516301155090332 12.615381240844727 5.758738040924072 C 12.646069886162877 5.788976879790425 12.670439586043358 5.825015738606453 12.687073707580566 5.864758491516113 C 12.703707829117775 5.904501244425774 12.712273597717285 5.947154778987169 12.712273597717285 5.990238189697266 C 12.712273597717285 6.033321600407362 12.703707829117775 6.075975134968758 12.687073707580566 6.115717887878418 C 12.670439586043358 6.155460640788078 12.646069886162877 6.191499499604106 12.615381240844727 6.221738338470459 L 11.460380554199219 7.399738311767578 C 11.431212877854705 7.428806198760867 11.396579578518867 7.451812686398625 11.358477592468262 7.46743106842041 C 11.320375606417656 7.483049450442195 11.279559552669525 7.490970820756047 11.238381385803223 7.490738391876221 L 11.238381385803223 7.4897379875183105 Z M 13.921380996704102 4.782738208770752 C 13.840324580669403 4.782902751350775 13.762427791953087 4.751313451677561 13.704380989074707 4.694738388061523 C 12.084761500358582 3.15549635887146 9.935756206512451 2.297207593917847 7.701380729675293 2.2972075939178467 C 5.467005252838135 2.297207593917847 3.318000316619873 3.15549635887146 1.6983808279037476 4.694738388061523 C 1.6400270015001297 4.751464895904064 1.5617623701691628 4.783057758613722 1.4803807735443115 4.782738208770752 C 1.439419411122799 4.782908726789174 1.3988407030701637 4.774853650480509 1.3610502481460571 4.759050369262695 C 1.3232597932219505 4.743247088044882 1.2890268191695213 4.720017284154892 1.260380744934082 4.690738201141357 L 0.0953807458281517 3.514738082885742 C 0.06514465250074863 3.4845520425587893 0.041157158091664314 3.448700424283743 0.024790693074464798 3.4092345237731934 C 0.008424228057265282 3.369768623262644 3.122502256758253e-17 3.3274629786610603 0 3.284738063812256 C 3.469446951953614e-17 3.2420131489634514 0.008424228057265282 3.199707504361868 0.024790693074464798 3.1602416038513184 C 0.041157158091664314 3.120775703340769 0.06514465250074863 3.0849240850657225 0.0953807458281517 3.0547380447387695 C 2.141129694879055 1.0944007635116577 4.865006446838379 -1.887379141862766e-15 7.698380947113037 0 C 10.531755447387695 -1.4432899320127035e-15 13.255632162094116 1.0944007635116577 15.30138111114502 3.0547380447387695 C 15.33173705637455 3.084856642410159 15.355830576270819 3.1206862442195415 15.372272491455078 3.160161256790161 C 15.388714406639338 3.1996362693607807 15.397179603576658 3.241975773125887 15.39717960357666 3.284738063812256 C 15.397179603576658 3.327500354498625 15.388714406639338 3.369839619845152 15.372272491455078 3.4093146324157715 C 15.355830576270819 3.448789644986391 15.33173705637455 3.4846194852143526 15.30138111114502 3.514738082885742 L 14.14138126373291 4.690738201141357 C 14.11273518949747 4.720017284154892 14.078501857817173 4.743247088044882 14.040711402893066 4.759050369262695 C 14.00292094796896 4.774853650480509 13.962342359125614 4.782908726789174 13.921380996704102 4.782738208770752 L 13.921380996704102 4.782738208770752 Z" fill="rgb(15.000000055879354,24.000000469386578,40.00000141561031)"/>
        </svg>